# xmcd
#
# Track frame offsets:
#	150
#	17577
#	34655
#	50334
#	66993
#	84099
#	101238
#	116784
#	131576
#	150010
#	166585
#	183747
#	199344
#	215919
#
# Disc length: 3176 seconds
#
# Revision: 1
# Processed by: cddbd v1.5.2PL0 Copyright (c) Steve Scherf et al.
# Submitted via: audiograbber 1.83.01
#
DISCID=bb0c660e
DTITLE=Ne-Yo - In My Own Words (UK Bonus Tracks)
DYEAR=2006
DGENRE=Soul and R&B
TTITLE0=Stay
TTITLE1=Let Me Get This Right
TTITLE2=So Sick
TTITLE3=When You're Mad
TTITLE4=It Just Ain't Right
TTITLE5=Mirror
TTITLE6=Sign Me Up
TTITLE7=I Ain't Gotta Tell You
TTITLE8=Get Down Like That
TTITLE9=Sexy Love
TTITLE10=Let Go
TTITLE11=Time
TTITLE12=Girlfriend
TTITLE13=Get Down Like That (Remix)
EXTD=
EXTT0=
EXTT1=
EXTT2=
EXTT3=
EXTT4=
EXTT5=
EXTT6=
EXTT7=
EXTT8=
EXTT9=
EXTT10=
EXTT11=
EXTT12=
EXTT13=
PLAYORDER=
